<svg width="69" height="70" viewBox="0 0 69 70" fill="none" xmlns="http://www.w3.org/2000/svg">
<path fill-rule="evenodd" clip-rule="evenodd" d="M48.075 26.2331L45.9318 27.4373C39.5945 30.9979 31.6139 29.1113 27.6364 23.1122L26.1761 20.9098L27.47 23.2139C30.9945 29.4899 29.0334 37.4524 22.9742 41.468L20.925 42.8261L23.0682 41.6219C29.4054 38.0612 37.386 39.9479 41.3636 45.9469L42.8238 48.1493L41.5299 45.8453C38.0055 39.5693 39.9666 31.6067 46.0258 27.5911L48.075 26.2331ZM55.7096 21.1745L56.0589 21.7462L46.3965 28.1496C40.6329 31.9693 38.7674 39.5435 42.12 45.5134L47.9043 55.8135L47.3271 56.1663L40.7991 46.3206C37.0155 40.6142 29.4243 38.8196 23.3962 42.2066L13.2904 47.8846L12.941 47.313L22.6034 40.9095C28.3671 37.0898 30.2325 29.5156 26.88 23.5458L21.0956 13.2456L21.6729 12.8928L28.2009 22.7385C31.9844 28.4449 39.5757 30.2395 45.6038 26.8526L55.7096 21.1745Z" fill="white"/>
</svg>
