<svg width="375" height="500" viewBox="0 0 375 500" fill="none" xmlns="http://www.w3.org/2000/svg">
<g clip-path="url(#clip0_43_159)">
<path id="path-me" fill-rule="evenodd" clip-rule="evenodd" d="M295.798 126.233C293.674 127.528 292.744 129.724 293.345 132.024C293.585 132.942 293.259 133.88 292.369 134.827C290.858 136.436 291.546 136.723 293.551 135.319C294.727 134.495 295.134 134.495 297.108 135.319C299.963 136.512 301.875 136.509 301.875 135.312C301.875 134.797 301.336 134.375 300.676 134.375C298.529 134.375 297.5 133.645 297.5 132.121C297.5 130.942 297.831 130.625 299.062 130.625C299.922 130.625 300.625 130.926 300.625 131.294C300.625 131.663 300.977 132.356 301.406 132.836C301.836 133.314 302.55 134.138 302.993 134.666C304.131 136.019 307.038 135.856 308.978 134.33C310.392 133.218 311.132 133.096 314.218 133.464C317.709 133.881 317.952 134.039 322.661 138.921C325.328 141.686 327.674 143.784 327.874 143.584C328.696 142.763 327.204 140.434 323.246 136.359C318.699 131.677 316.776 130.349 315.866 131.259C315.056 132.069 312.5 131.284 312.5 130.224C312.5 129.501 312.136 129.531 310.469 130.393C309.351 130.971 307.679 132.004 306.751 132.69C305.135 133.885 304.997 133.892 303.408 132.851C302.198 132.057 301.825 131.373 302.028 130.313C302.227 129.272 301.927 128.689 300.968 128.252C299.075 127.39 296.55 128.864 295.689 131.337C294.797 133.892 294.099 133.23 294.641 130.343C294.94 128.747 295.572 127.861 296.903 127.173C297.919 126.647 298.75 125.944 298.75 125.609C298.75 124.712 298.049 124.861 295.798 126.233ZM288.422 136.901C287.128 138.994 272.454 147.223 268.052 148.323C263.228 149.529 246.875 164.589 246.875 167.825C246.875 168.095 248.492 166.781 250.469 164.906C255.454 160.176 260.374 156.583 264.062 154.978C270.155 152.327 277.541 150.641 283.094 150.632C287.181 150.627 288.207 150.457 287.63 149.88C287.204 149.454 285.574 149.205 283.819 149.298C282.132 149.387 280.566 149.161 280.339 148.793C280.112 148.426 278.904 148.125 277.654 148.125H275.382L277.5 146.562C278.665 145.703 280.09 145 280.667 145C281.691 145 289.191 138.769 290.187 137.091C290.786 136.084 289.043 135.896 288.422 136.901ZM335 146.875C334.299 147.328 334.63 147.483 336.313 147.491C339.779 147.505 342.456 148.668 342.876 150.342C343.243 151.802 346.08 154.173 347.096 153.867C348.114 153.561 350 154.464 350 155.257C350 155.697 349.438 156.566 348.75 157.187C346.846 158.911 347.118 161.9 349.375 164.062L351.25 165.859V164.215C351.25 163.231 350.699 162.185 349.879 161.611L348.508 160.651L349.808 159.231C352.377 156.425 352.304 153.125 349.674 153.125C348.749 153.125 347.349 152.122 345.774 150.334C344.423 148.798 342.553 147.251 341.618 146.896C339.492 146.087 336.234 146.077 335 146.875ZM239.997 173.606C236.879 176.724 236.76 177.964 239.775 175.919C243.521 173.376 244.373 173.739 248.178 179.495C250.039 182.311 251.876 184.713 252.258 184.831C253.171 185.114 253.834 180.929 253.159 179.153C252.869 178.391 251.407 176.451 249.91 174.841C247.931 172.714 246.547 171.805 244.841 171.513C242.699 171.145 242.274 171.329 239.997 173.606ZM0.329375 215.625C1.05688 233.574 2.23188 242.083 7.27437 265.937C8.51 271.781 9.73375 277.687 9.99438 279.062C10.2556 280.437 12.0206 289.297 13.9175 298.75C15.8137 308.203 17.5569 317.034 17.7912 318.374L18.2169 320.811L19.5169 319.511L20.8169 318.211L19.1256 308.637C17.5137 299.513 16.9 296.334 14.685 285.625C14.1519 283.047 13.0331 277.422 12.1994 273.125C11.3656 268.828 9.57 259.828 8.21 253.125C5.72 240.855 3.26937 227.949 1.565 218.125C1.0575 215.203 0.518125 212.109 0.365625 211.25C0.213125 210.391 0.196875 212.359 0.329375 215.625ZM271.189 211.752C271.504 212.336 274.616 215.872 278.106 219.612C285.054 227.059 287.682 231.433 287.065 234.519C286.779 235.948 286.894 236.348 287.528 236.137C289.831 235.369 288.899 228.087 286.159 225.444C285.522 224.829 285 223.677 285 222.885C285 222.092 284.407 220.908 283.682 220.253C282.957 219.598 281.69 217.732 280.865 216.105C279.039 212.504 276.986 211.067 273.364 210.854C270.949 210.712 270.686 210.82 271.189 211.752ZM218.678 221.094C218.638 221.352 218.541 221.844 218.461 222.187C218.381 222.531 218.273 223.284 218.22 223.862C218.168 224.439 217.666 225.37 217.104 225.931C216.318 226.718 216.231 227.264 216.727 228.319C217.726 230.446 221.876 235 222.816 235C224.633 235 224.06 232.765 221.694 230.625C219.471 228.614 219.33 228.296 219.951 226.678C220.967 224.026 220.819 220.625 219.688 220.625C219.172 220.625 218.718 220.836 218.678 221.094ZM211.354 228.594C211.681 229.883 212.847 232.11 213.943 233.543C215.04 234.976 217.137 237.712 218.603 239.622C222.214 244.329 225.985 247.863 228.973 249.342C232.921 251.294 232.89 250.127 228.927 247.556C226.939 246.267 224.328 244.079 223.125 242.693C217.998 236.791 215.733 233.836 213.515 230.156C212.219 228.008 211.069 226.25 210.959 226.25C210.848 226.25 211.026 227.305 211.354 228.594ZM191.673 228.661C191.179 229.226 190.317 230.593 189.756 231.7C189.196 232.807 188.247 233.967 187.65 234.278C185.574 235.358 177.771 236.397 170.312 236.587C166.188 236.692 159.578 237.106 155.625 237.507C142.036 238.886 136.551 239.208 131.25 238.941C122.236 238.486 119.816 238.591 116.048 239.603C110.211 241.17 103.6 244.909 98.27 249.656C95.5481 252.079 92.6819 254.484 91.9006 255C91.1194 255.516 89.7706 256.481 88.9031 257.146C83.8994 260.976 78.8381 263.878 76.1587 264.453C72.5012 265.237 70.3562 267.213 67.91 272.049C66.9206 274.004 63.3169 278.642 59.785 282.506C56.2937 286.324 51.5694 291.71 49.2863 294.475C47.0038 297.24 43.895 300.528 42.3781 301.782C35.8556 307.176 29.8263 312.946 25.8756 317.572C23.3169 320.569 21.0044 322.682 20.0375 322.904C17.735 323.435 11.4219 327.062 8.00062 329.82C4.83437 332.372 0 338.672 0 340.245C0 341.898 1.73062 340.678 4.20812 337.279C5.4975 335.51 7.11687 333.554 7.8075 332.933C10.0062 330.954 17.3306 326.279 20.1194 325.074C21.8619 324.321 25.6931 321.068 30.9719 315.861C35.4594 311.434 41.5063 305.561 44.4094 302.809C50.4925 297.041 62.5719 283.782 66.3256 278.75C67.7363 276.859 69.4531 274.116 70.1406 272.652C71.6269 269.491 74.5281 266.875 76.5469 266.875C78.6969 266.875 84.8088 263.454 87.7363 260.613C89.19 259.202 90.9113 258.125 91.7125 258.125C92.4894 258.125 93.125 257.834 93.125 257.479C93.125 257.124 94.0806 256.269 95.2481 255.58C96.4163 254.891 98.0331 253.356 98.8419 252.168C99.7238 250.873 100.833 250.007 101.613 250.004C102.329 250.002 103.254 249.364 103.67 248.587C104.494 247.046 110.362 243.822 115.312 242.189C118.56 241.118 123.642 240.848 133.75 241.208C139.334 241.408 150.374 240.854 151.219 240.332C151.429 240.201 154 239.929 156.931 239.727C174.281 238.531 181.084 238.136 184.611 238.119C186.597 238.11 187.414 237.694 189.137 235.812C190.294 234.55 191.402 233.004 191.602 232.377C191.801 231.749 192.797 230.806 193.815 230.279C194.833 229.753 195.521 229.086 195.343 228.799C194.686 227.736 192.553 227.656 191.673 228.661ZM182.396 247.521C181.824 247.855 180.436 249.604 179.312 251.408C177.389 254.494 177.266 255.038 177.228 260.625L177.188 266.562L180.704 273.75C184.334 281.169 185.365 283.75 184.699 283.75C184.486 283.75 183.554 283.364 182.625 282.892C178.766 280.929 178.131 281.357 181.857 283.409C186.509 285.971 190.602 289.709 193.181 293.75C194.168 295.297 194.982 296.197 194.988 295.75C195.009 294.353 193.116 291.212 190.627 288.512C188.463 286.165 184.693 278.476 180.548 267.962C178.028 261.57 179.491 252.591 183.576 249.377C187.129 246.582 187.897 248.424 184.98 252.745C182.372 256.609 181.669 258.944 182.148 262.141C183.053 268.179 191.781 278.784 199.862 283.667C206.115 287.444 206.704 286.821 200.738 282.739C195.494 279.152 188.521 271.988 186.588 268.201C185.995 267.04 185.102 264.716 184.604 263.038C183.764 260.212 183.789 259.779 184.942 257.173C186.96 252.611 189.084 252.822 191.274 257.804C191.881 259.184 193.103 261.275 193.991 262.451C195.804 264.854 204.012 271.25 205.282 271.25C205.736 271.25 206.912 271.67 207.897 272.184C208.882 272.697 210.157 273.119 210.731 273.121C211.304 273.123 212.57 273.516 213.543 273.994C217.335 275.858 221.771 276.989 226.562 277.315C232.719 277.733 232.384 276.715 225.918 275.363C220.197 274.167 215.157 272.714 212.718 271.558C211.635 271.045 210.175 270.625 209.474 270.625C208.772 270.625 208.02 270.336 207.801 269.982C207.583 269.629 206.579 268.996 205.57 268.576C202.527 267.309 196.514 261.775 194.34 258.239C193.216 256.411 191.498 253.911 190.523 252.684C189.548 251.457 188.75 249.923 188.75 249.274C188.75 247.358 184.626 246.219 182.396 247.521ZM301.25 254.941C301.25 255.252 302.425 255.884 303.861 256.347C306.991 257.354 307.31 258.028 305.655 260.132C304.617 261.452 303.672 261.802 300.169 262.164C297.842 262.405 295.094 263.083 294.062 263.671C291.542 265.107 287.108 266.671 284.104 267.182C281.193 267.676 272.469 271.949 273.584 272.332C274.009 272.479 275.242 271.968 276.323 271.198C278.133 269.909 281.341 268.877 287.824 267.501C289.206 267.207 291.596 266.246 293.137 265.366C295.089 264.25 296.884 263.759 299.062 263.744C305.289 263.701 309.381 260.39 307.515 256.903C306.474 254.957 301.25 253.321 301.25 254.941ZM224.375 280.647C220.428 280.895 218.123 281.416 215.404 282.672C209.764 285.279 203.182 293.097 199.976 300.998C199.221 302.856 198.356 304.375 198.053 304.375C197.116 304.375 197.468 306.346 199.393 311.875C200.409 314.797 201.243 317.378 201.246 317.612C201.266 319.619 195.521 320.896 193.875 319.25C193.017 318.392 192.803 306.875 193.645 306.875C194.451 306.875 195.675 302.3 195.039 301.664C194.116 300.741 193.328 301.694 192.222 305.075C191.386 307.632 191.259 309.441 191.606 313.874C192.111 320.329 192.719 321.254 196.451 321.241C199.826 321.229 202.132 320.039 202.399 318.174C202.624 316.601 201.701 312.487 200.246 308.571C199.48 306.509 199.488 305.969 200.308 304.383C200.826 303.381 201.25 302.281 201.25 301.937C201.25 300.414 209.612 289.423 212.833 286.713C213.871 285.839 215.881 284.811 217.296 284.43C218.713 284.049 220.028 283.328 220.219 282.829C220.481 282.149 221.982 281.877 226.236 281.742C230.407 281.61 231.611 281.397 230.796 280.937C230.158 280.577 227.433 280.454 224.375 280.647ZM364.967 382.071C360.657 387.023 357.735 390.821 357.304 392.031C357.089 392.632 356.343 393.125 355.644 393.125C354.946 393.125 354.375 393.389 354.375 393.712C354.375 394.371 351.106 398.377 345.768 404.257C343.799 406.427 341.512 409.38 340.686 410.82C339.861 412.259 338.806 414.061 338.341 414.824L337.497 416.211L335.204 414.654C332.386 412.742 326.662 411.011 324.746 411.492C320.807 412.481 317.89 417.185 316.758 424.375C315.921 429.696 316.184 429.413 308.438 433.288C307.062 433.976 304.953 435.301 303.75 436.233C302.547 437.165 299.756 438.976 297.549 440.257C295.342 441.538 290.842 445.063 287.549 448.091C284.256 451.118 279.969 454.608 278.021 455.846C276.074 457.084 272.699 459.598 270.521 461.434C268.344 463.269 263.628 467.002 260.041 469.729C256.454 472.456 251.251 476.824 248.478 479.436C244.615 483.075 242.251 484.717 238.359 486.467C235.566 487.722 232.838 488.75 232.297 488.75C231.757 488.75 228.875 489.633 225.893 490.712C220.262 492.749 216.844 495.164 215.264 498.217C213.748 501.152 215.698 500.466 218.638 497.031C220.634 494.698 222.223 493.636 226.058 492.071C228.742 490.975 232.463 489.74 234.327 489.326C240.801 487.889 245.487 485.231 251.203 479.753C254.151 476.929 258.25 473.374 260.312 471.855C262.375 470.335 266.586 466.988 269.669 464.417C272.753 461.846 276.83 458.807 278.729 457.664C280.628 456.52 285.043 452.947 288.541 449.724C292.04 446.5 296.963 442.665 299.482 441.202C302.001 439.739 304.906 437.913 305.938 437.144C306.969 436.376 308.797 435.283 310 434.716C317.277 431.281 317.931 430.613 318.458 426.079C319.383 418.102 322.136 413.75 326.256 413.75C329.861 413.75 334.155 415.522 336.203 417.854L338.068 419.979L340.424 415.458C341.72 412.972 344.756 408.767 347.171 406.116C352.791 399.945 355.24 396.952 356.263 395.006C356.713 394.149 357.889 392.64 358.877 391.652C359.865 390.664 361.231 388.763 361.912 387.427C362.593 386.092 363.412 385 363.732 385C364.37 385 368.387 379.429 368.017 379.058C367.891 378.932 366.519 380.288 364.967 382.071ZM89.4837 437.946C85.9825 439.641 84.6813 442.171 84.7294 447.187C84.7769 452.191 86.0825 455.307 89.5125 458.6C93.5069 462.435 95.8938 463.286 102.344 463.177C105.524 463.124 108.125 463.252 108.125 463.464C108.125 463.675 106.9 465.021 105.402 466.455C102.326 469.402 97.2106 476.11 91.0225 485.312C88.7106 488.75 85.7069 493.087 84.3475 494.951C81.8131 498.423 81.2162 500.247 82.73 499.889C83.7219 499.655 88.47 493.487 93.9119 485.363C99.9556 476.34 104.974 469.93 108.603 466.598C110.454 464.898 112.388 462.696 112.901 461.703C113.506 460.533 114.162 460.024 114.766 460.256C116.357 460.867 128.844 453.636 127.873 452.665C127.738 452.529 126.121 453.249 124.282 454.266C111.749 461.189 111.793 461.174 103.861 461.347C95.5056 461.529 93.9594 460.947 90.2044 456.202C85.9594 450.837 85.7481 442.951 89.7787 440.31C91.2256 439.362 91.5525 439.364 94.2631 440.339C96.2087 441.037 100.013 441.496 105.625 441.706C113.112 441.987 114.59 441.866 118.749 440.626C122.258 439.581 124.299 439.322 126.874 439.597C134.534 440.416 144.426 441.841 146.698 442.452C149.444 443.192 155.777 446.489 156.787 447.706C157.832 448.966 158.739 458.758 158.745 468.847C158.749 476.671 157.451 493.058 156.616 495.726C155.695 498.669 155.649 500 156.469 500C157.419 500 157.486 499.696 159.449 486.562C160.576 479.031 160.711 475.986 160.418 464.687C160.231 457.469 159.884 450.775 159.648 449.813C158.57 445.431 149.741 440.427 141.25 439.387C138.328 439.029 133.216 438.277 129.888 437.717L123.839 436.699L118.638 438.352C114.358 439.713 112.276 440.002 106.875 439.988C100.079 439.969 97.4969 439.565 93.7219 437.927C91.7231 437.059 91.3094 437.061 89.4837 437.946Z" fill="white"/>
</g>
<defs>
<clipPath id="clip0_43_159">
<rect width="375" height="500" fill="white"/>
</clipPath>
</defs>
</svg>
