<svg width="800" height="571" viewBox="0 0 800 571" fill="none" xmlns="http://www.w3.org/2000/svg">
<g clip-path="url(#clip0_72_10)">
<mask id="mask0_72_10" style="mask-type:alpha" maskUnits="userSpaceOnUse" x="283" y="64" width="447" height="507">
<path id="path-phone" fill-rule="evenodd" clip-rule="evenodd" d="M407.5 65.184C400.9 65.654 384.925 66.921 372 68.001C359.075 69.08 343.325 70.247 337 70.594C302.885 72.465 295.041 74.966 289.617 85.7C287.492 89.906 287.429 107.651 289.46 130C291.028 147.255 293.84 180.885 296.484 214C298.048 233.59 300.855 267.013 303.203 294C303.897 301.975 304.369 310.202 304.253 312.282C304.136 314.366 305.154 319.02 306.521 322.651C310.578 333.43 309.561 347.456 304.65 348.445C303.468 348.684 301.15 349.159 299.5 349.502C297.85 349.845 293.883 350.502 290.685 350.961C287.486 351.421 284.574 352.092 284.214 352.453C281.433 355.234 300.945 356.128 304.842 353.398C306.1 352.517 307.357 352.023 307.634 352.301C307.912 352.579 308.391 356.136 308.699 360.206L309.259 367.606L305.174 368.83C302.927 369.503 300.394 370.749 299.545 371.598C295.517 375.626 300.293 376.307 304.97 372.372C307.987 369.833 308.141 369.808 309.534 371.622C311.582 374.289 315 385.57 315 389.663C315 391.561 314.511 395.056 313.914 397.429L312.827 401.744L305.664 402.428C294.502 403.495 293.969 403.595 294.242 404.577C294.384 405.085 298.475 405.536 303.334 405.581L312.168 405.662L314.551 411.581C317.283 418.368 320.883 421.846 327.707 424.292C333.084 426.219 346.377 426.613 351.965 425.01C356.8 423.623 372 424.866 372 426.648C372 427.391 371.438 428.037 370.75 428.081C370.063 428.126 370.82 428.745 372.434 429.456C375.216 430.683 375.476 430.589 377.465 427.625C379.793 424.158 385.235 422.219 393.031 422.08L397.562 422L397.845 428.949C398.174 437.008 400.934 448.149 402.75 448.752C404.361 449.286 404.327 446.299 402.57 433.006C401.807 427.235 401.361 422.224 401.579 421.872C402.141 420.963 408.342 420.172 425 418.883C432.975 418.266 440.625 417.642 442 417.495C443.375 417.349 447.65 416.914 451.5 416.528C473.241 414.348 482.58 404.175 477.515 388.188C473.185 374.522 471.689 345.554 474.589 331.53C475.463 327.304 475.916 322.802 475.596 321.526C474.95 318.953 472.002 297.768 471.418 291.5C469.964 275.901 469.274 271.215 468.127 269.149C465.473 264.368 463.878 248.469 464.978 237.752C466.499 222.926 466.299 200.65 464.607 196.603C463.66 194.335 463.011 186.725 462.576 172.788C462.225 161.522 461.503 148.749 460.972 144.403C459.485 132.23 457.257 110.827 456.036 97C454.577 80.468 452.782 74.858 447.446 70.161C440.414 63.971 434.635 63.251 407.5 65.184ZM378.073 74.635C376.933 76.084 376 77.961 376 78.806C376 80.976 373.026 84 370.892 84C369.903 84 368.285 82.812 367.297 81.36C366.309 79.908 364.318 77.454 362.873 75.906L360.246 73.092L365.873 72.735C368.968 72.539 373.445 72.293 375.823 72.189L380.145 72L378.073 74.635ZM443.091 76.75C445.629 79.122 447.408 81.853 447.931 84.181C448.8 88.048 450.952 111.892 453.464 145.5C454.287 156.5 455.86 176.975 456.96 191C458.06 205.025 459.43 223.475 460.004 232C460.578 240.525 461.475 252.225 461.996 258C462.936 268.416 464.102 283.498 467.989 335.5C469.099 350.35 470.476 368.35 471.049 375.5C472.882 398.377 469.836 401.926 446.593 403.988C440.492 404.53 424.925 405.877 412 406.982C333.128 413.727 333.742 413.694 328.295 411.507C321.198 408.658 320.239 405.919 318.022 382.149C315.81 358.435 312.701 321.478 310.482 292.5C309.639 281.5 308.081 262.15 307.018 249.5C305.956 236.85 304.4 217.95 303.561 207.5C300.632 171.02 297.915 138.376 296.447 122C294.338 98.49 294.476 93.075 297.287 88.898C301.408 82.777 306.708 81.462 333.057 80.024C342.815 79.491 352.587 78.77 354.772 78.42C358.321 77.853 358.945 78.077 360.622 80.514C364.718 86.466 366.789 88 370.732 88C375.798 88 378.71 85.792 380.01 80.963C380.597 78.784 381.622 76.97 382.289 76.933C382.955 76.897 391.375 76.052 401 75.056C410.625 74.06 423.13 73.19 428.789 73.123L439.077 73L443.091 76.75ZM479.471 208.933C475.841 209.947 470 215.136 470 217.347C470 219.145 470.448 218.912 473.044 215.763C476.912 211.07 482.646 209.179 485.163 211.765C486.091 212.719 487.14 215.75 487.494 218.5L488.138 223.5L486.091 221C484.965 219.625 484.034 217.502 484.022 216.281C484.007 214.725 483.553 214.234 482.5 214.638C481.675 214.955 481 216.208 481 217.424C481 219.601 486.103 230.503 488.018 232.418C488.558 232.958 489 235.18 489 237.356C489 239.968 489.8 242.362 491.356 244.406C492.652 246.108 494.081 248.625 494.533 250L495.353 252.5L495.944 250.115C496.469 248 496.869 248.398 499.468 253.615C501.08 256.852 504.172 261.525 506.338 264C508.504 266.475 511.152 270.3 512.223 272.5C515.886 280.03 517.309 282.412 522.947 290.451C526.051 294.878 529.432 300.525 530.459 303C531.486 305.475 533.153 308.247 534.163 309.16C535.173 310.073 536 311.327 536 311.945C536 314.047 539.145 317.882 540.456 317.378C541.825 316.853 546 322.689 546 325.127C546 325.893 546.832 327.039 547.85 327.674C548.867 328.309 552.02 332.314 554.857 336.574C559.801 343.998 560.776 346.719 557.524 344.02C556.284 342.991 556.003 343.011 556.015 344.128C556.038 346.151 557.743 348.5 559.189 348.5C559.884 348.5 560.853 349.85 561.343 351.5C561.833 353.15 562.627 355.175 563.108 356C563.589 356.825 565.172 359.75 566.626 362.5C568.08 365.25 570.109 368.573 571.135 369.885C572.161 371.197 573 373.059 573 374.023C573 374.987 574.474 377.964 576.275 380.638C580.375 386.725 584.874 397.782 586.185 404.994C586.736 408.022 587.482 411.85 587.843 413.5C588.431 416.183 598.178 429.174 603.575 434.466C604.715 435.585 605.957 437.334 606.333 438.354C606.769 439.537 607.594 439.986 608.613 439.595C610.482 438.878 627.13 455.193 636.32 466.75C640.539 472.056 642.715 474 644.434 474C646.114 474 646.964 474.722 647.419 476.531C648.169 479.521 645.142 483.967 638.679 489.368C636.38 491.288 632.7 494.511 630.5 496.53C628.3 498.549 624.025 501.908 621 503.995C617.975 506.082 614.15 509.224 612.5 510.977C608.324 515.414 581.019 533.315 566 541.463C559.125 545.192 552.539 549.119 551.364 550.189C549.848 551.57 548.119 552.042 545.41 551.817C541.9 551.526 541.361 551.056 538.741 546C537.174 542.975 535.105 539.701 534.143 538.725C532.472 537.029 532.145 537.203 526.738 542.653C519.986 549.459 519.095 552.305 521.959 557.919C523.104 560.164 524.37 562 524.772 562C525.174 562 526.578 564.025 527.891 566.5C530.018 570.509 530.656 571 533.746 571C536.657 571 537.098 570.719 536.494 569.25C536.097 568.288 535.547 566.712 535.27 565.75C534.725 563.855 533 563.33 533 565.059C533 565.641 532.57 565.852 532.044 565.527C531.518 565.202 531.332 564.299 531.63 563.521C531.94 562.715 530.621 560.554 528.563 558.496C526.577 556.51 525.145 554.574 525.381 554.193C525.731 553.627 534.68 553.439 539.711 553.891C540.378 553.951 541.444 555.913 542.082 558.25C543.058 561.829 543.362 562.179 544.008 560.465C545.171 557.383 547.639 555.751 550 556.5C551.154 556.866 552.743 556.628 553.535 555.971C554.327 555.314 555.611 555.02 556.389 555.319C557.258 555.653 558.014 555.054 558.351 553.766C558.836 551.91 559.098 551.833 560.641 553.086C561.783 554.013 562.123 554.066 561.628 553.242C561.142 552.433 561.699 551.651 563.186 551.055C564.459 550.544 565.107 550.098 564.628 550.063C564.148 550.029 564.293 549.352 564.951 548.559C565.608 547.767 566.743 547.348 567.472 547.628C568.201 547.907 569.099 547.648 569.468 547.052C569.837 546.455 570.57 546.234 571.098 546.561C571.626 546.887 573.058 546.235 574.279 545.112C578.442 541.286 588.494 534.259 590.849 533.53C592.141 533.13 593.941 532.152 594.849 531.357C599.933 526.905 605.346 523 606.434 523C607.119 523 609.439 521.212 611.589 519.028C620.56 509.916 622.767 507.994 628.113 504.637C631.201 502.699 634.884 499.738 636.299 498.057C637.713 496.375 639.256 495 639.727 495C640.861 495 648.194 487.232 650.346 483.75C652.598 480.108 653.557 480.276 656.046 484.75C660.906 493.484 663.316 497.127 669 504.336C670.375 506.08 671.986 508.385 672.581 509.459C673.176 510.533 675.426 512.398 677.581 513.605C680.551 515.267 682.317 517.411 684.871 522.456C686.725 526.117 689.339 529.831 690.679 530.709C694.69 533.337 699.321 538.012 698.614 538.719C698.251 539.082 697.264 538.394 696.42 537.19C694.838 534.931 692 534.196 692 536.045C692 537.85 696.817 542 698.912 542C700.039 542 702.135 543.595 703.707 545.648C705.243 547.654 708.918 551.908 711.873 555.101C714.828 558.293 717.934 561.939 718.776 563.203C721.913 567.91 725.444 571 727.687 571C730.686 571 730.715 568.43 727.75 565.524C723.379 561.241 712.459 548.656 709.34 544.306C707.601 541.883 703.101 536.757 699.34 532.915C692.788 526.225 689.074 520.958 687.574 516.235C687.192 515.028 682.181 509.28 676.439 503.462C670.698 497.643 666 492.405 666 491.822C666 491.239 663.481 486.788 660.402 481.932C654.784 473.069 651.367 469.745 648.202 470.06C644.789 470.401 644.081 469.883 638.889 463.25C635.983 459.538 629.982 452.981 625.553 448.679C600.144 424.004 596.922 420.532 593.99 414.665C592.346 411.373 591 407.404 591 405.844C591 401.508 587.316 391.798 580.833 379.047C577.604 372.696 574.529 366.825 574 366C571.151 361.558 567 353.776 567 352.877C567 350.382 561.355 338.065 558.119 333.5C539.406 307.1 520.745 278.921 516.591 270.79C514.377 266.458 510.163 259.72 507.226 255.815C498.095 243.678 492.694 230.878 491.377 218.259C491.019 214.826 490.125 211.519 489.391 210.91C487.539 209.373 481.911 208.252 479.471 208.933ZM474 291.151C474 291.807 476.025 294.283 478.5 296.655C483.223 301.18 483.887 303.266 481.642 306.527C479.893 309.069 477.641 315.974 478.335 316.668C478.629 316.962 480.255 314.457 481.949 311.101C484.926 305.204 486.682 303.644 487.413 306.25C487.606 306.938 488.324 309.525 489.008 312C489.692 314.475 490.811 317.774 491.494 319.332L492.735 322.164L493.257 319.433C493.613 317.574 492.698 314.446 490.39 309.63C488.525 305.739 487 302.016 487 301.355C487 300.694 485.818 298.749 484.374 297.033C481.359 293.45 474 289.278 474 291.151ZM472.332 402.25C469.941 406.444 461.577 410.626 453 411.916C449.425 412.453 436.411 413.842 424.081 415.002C411.75 416.162 400.867 417.536 399.897 418.055C398.926 418.575 395.649 419 392.615 419C385.294 419 376.996 420.846 376.313 422.627C375.84 423.86 375.606 423.855 374.632 422.589C373.375 420.957 362.061 420.37 342.422 420.92C331.022 421.239 327.514 420.401 322.75 416.224C320.09 413.892 320.661 412.732 323.541 414.619C328.893 418.126 332.934 418.03 394 412.949C426.725 410.226 455.3 407.729 457.5 407.4C462.808 406.605 469.049 403.798 471.405 401.145C474.127 398.08 474.473 398.493 472.332 402.25ZM440.223 421.25C437.607 424.449 426 458.664 426 463.175C426 468.686 430.224 459.919 434.033 446.5C434.92 443.374 437.398 436.374 440.93 427.014C442.068 423.997 443 421.184 443 420.764C443 419.576 441.356 419.864 440.223 421.25ZM344 436.171C344 436.815 343.385 438.053 342.633 438.921C341.881 439.79 340.988 442.335 340.649 444.577C340.151 447.863 340.47 449.249 342.289 451.714C345.045 455.45 350.894 461 352.075 461C352.55 461 356.839 458.696 361.607 455.88L370.275 450.76L384.887 451.191C400.591 451.654 402.914 452.284 406.838 457.144C408.124 458.737 410.434 460.69 411.971 461.485C413.508 462.28 415.055 464.085 415.409 465.495C415.864 467.306 416.917 468.233 418.988 468.648C421.181 469.086 422.194 470.059 423 472.5C423.8 474.925 424.822 475.914 426.969 476.344C429.214 476.793 429.931 477.545 430.18 479.711C430.433 481.913 431.079 482.567 433.25 482.816C436.249 483.161 436.83 481.934 434.56 480.05C433.768 479.393 432.981 477.902 432.81 476.736C432.606 475.341 431.471 474.353 429.485 473.841C427.719 473.386 425.742 471.833 424.714 470.093C423.749 468.459 422.063 466.837 420.968 466.49C419.874 466.143 418.3 464.548 417.472 462.946C416.644 461.344 414.659 459.358 413.062 458.532C411.465 457.706 409.236 455.736 408.109 454.154C406.731 452.218 404.498 450.854 401.281 449.984C398.651 449.273 396.122 448.484 395.66 448.231C395.198 447.978 390.816 447.71 385.923 447.635C377.518 447.507 377.059 447.389 377.635 445.5C377.97 444.4 378.606 443.045 379.047 442.488C380.679 440.43 380.571 435.586 378.885 435.238C377.675 434.989 377.1 435.974 376.588 439.177C375.872 443.65 373.627 447 371.345 447C370.605 447 369.998 446.212 369.995 445.25C369.991 443.845 369.547 444.02 367.745 446.138C365.036 449.32 360.47 450.81 361.495 448.177C361.854 447.255 362.227 446.275 362.324 446C362.421 445.725 362.169 445.275 361.764 445C361.36 444.725 359.56 447.425 357.764 451C354.229 458.039 352.104 459.307 348.818 456.338C346.576 454.312 342 445.844 342 443.721C342 442.981 343.361 441.37 345.024 440.14C347.668 438.186 347.865 437.722 346.595 436.452C344.838 434.695 344 434.604 344 436.171ZM438 479.025C438 479.588 439.225 480.515 440.723 481.085C442.221 481.654 444.133 482.779 444.973 483.585C447.472 485.982 453.486 489.662 456.596 490.698C458.699 491.398 459.64 492.47 460.006 494.582C460.365 496.648 461.168 497.593 462.756 497.82C465.538 498.216 465.732 496.367 463 495.5C461.9 495.151 461 494.446 461 493.933C461 492.682 464.72 492.737 465.5 494C465.84 494.55 467.154 495 468.419 495C469.685 495 472.411 496.147 474.476 497.548C478.543 500.308 483.454 501.714 484.261 500.351C484.538 499.883 484.402 498.539 483.957 497.364C483.258 495.516 482.563 495.295 478.785 495.721C475.552 496.085 474.076 495.796 473.088 494.606C472.355 493.723 471.054 493 470.197 493C469.341 493 463.607 490.525 457.457 487.5C451.306 484.475 445.945 482 445.545 482C445.144 482 443.671 481.1 442.273 480C439.468 477.794 438 477.459 438 479.025ZM543.071 496.931C541.422 498.543 539.757 501.13 539.372 502.681C538.606 505.761 536.538 508.981 530.657 516.25C528.543 518.862 527.193 521.007 527.657 521.015C528.121 521.024 527.88 521.423 527.122 521.904C526.364 522.384 526.053 523.277 526.431 523.888C527.329 525.342 529 525.319 529 523.853C529 523.222 530.678 520.658 532.728 518.156C537.627 512.178 540.703 507.599 542.447 503.686C543.229 501.934 544.842 499.038 546.032 497.25C548.727 493.204 547.067 493.025 543.071 496.931Z" fill="black"/>
</mask>
<g mask="url(#mask0_72_10)">
<rect width="800" height="571" fill="white"/>
</g>
</g>
<defs>
<clipPath id="clip0_72_10">
<rect width="800" height="571" fill="white"/>
</clipPath>
</defs>
</svg>
