<svg width="142" height="142" viewBox="0 0 142 142" fill="none" xmlns="http://www.w3.org/2000/svg">
<path fill-rule="evenodd" clip-rule="evenodd" d="M27.3211 86.3915C50.7399 82.607 74.2373 93.564 86.3915 113.936C82.607 90.5176 93.564 67.0203 113.936 54.866C90.5177 58.6505 67.0203 47.6935 54.8661 27.3211C58.6506 50.7399 47.6936 74.2372 27.3211 86.3915ZM18.5702 88.513C45.832 77.4678 59.9287 47.2373 50.8663 19.2538L52.7445 18.5702C63.7898 45.832 94.0203 59.9287 122.004 50.8663L122.687 52.7445C95.4256 63.7897 81.3288 94.0202 90.3912 122.004L88.5131 122.687C77.4678 95.4255 47.2373 81.3288 19.2538 90.3912L18.5702 88.513Z" fill="white"/>
<path fill-rule="evenodd" clip-rule="evenodd" d="M27.3211 86.3915C50.7399 82.607 74.2373 93.564 86.3915 113.936C82.607 90.5176 93.564 67.0203 113.936 54.866C90.5177 58.6505 67.0203 47.6935 54.8661 27.3211C58.6506 50.7399 47.6936 74.2372 27.3211 86.3915ZM18.5702 88.513C45.832 77.4678 59.9287 47.2373 50.8663 19.2538L52.7445 18.5702C63.7898 45.832 94.0203 59.9287 122.004 50.8663L122.687 52.7445C95.4256 63.7897 81.3288 94.0202 90.3912 122.004L88.5131 122.687C77.4678 95.4255 47.2373 81.3288 19.2538 90.3912L18.5702 88.513Z" fill="white"/>
<path fill-rule="evenodd" clip-rule="evenodd" d="M89.907 104.574C88.5595 94.6536 85.1563 81.409 79.9922 67.2206C74.828 53.0322 68.9215 40.6987 63.5773 32.2334C60.8962 27.9866 58.4148 24.807 56.3019 22.8506C55.2433 21.8703 54.3584 21.2739 53.6635 20.9751C52.9807 20.6814 52.6386 20.7368 52.4894 20.7911C52.3402 20.8454 52.0425 21.0229 51.7082 21.6868C51.368 22.3623 51.0735 23.3881 50.8926 24.8194C50.5316 27.6762 50.6745 31.707 51.3505 36.6836C52.698 46.6036 56.1012 59.8482 61.2653 74.0366C66.4295 88.225 72.336 100.559 77.6802 109.024C80.3613 113.271 82.8427 116.45 84.9555 118.407C86.0142 119.387 86.8991 119.983 87.594 120.282C88.2768 120.576 88.6189 120.52 88.7681 120.466C88.9173 120.412 89.2149 120.234 89.5493 119.57C89.8895 118.895 90.184 117.869 90.3649 116.438C90.7259 113.581 90.5829 109.55 89.907 104.574ZM89.4521 122.346C95.6614 120.086 92.2674 95.099 81.8715 66.5366C71.4757 37.9741 58.0146 16.6517 51.8053 18.9117C45.5961 21.1717 48.9901 46.1582 59.3859 74.7207C69.7818 103.283 83.2429 124.605 89.4521 122.346Z" fill="white"/>
<path fill-rule="evenodd" clip-rule="evenodd" d="M89.907 104.574C88.5595 94.6536 85.1563 81.409 79.9922 67.2206C74.828 53.0322 68.9215 40.6987 63.5773 32.2334C60.8962 27.9866 58.4148 24.807 56.3019 22.8506C55.2433 21.8703 54.3584 21.2739 53.6635 20.9751C52.9807 20.6814 52.6386 20.7368 52.4894 20.7911C52.3402 20.8454 52.0425 21.0229 51.7082 21.6868C51.368 22.3623 51.0735 23.3881 50.8926 24.8194C50.5316 27.6762 50.6745 31.707 51.3505 36.6836C52.698 46.6036 56.1012 59.8482 61.2653 74.0366C66.4295 88.225 72.336 100.559 77.6802 109.024C80.3613 113.271 82.8427 116.45 84.9555 118.407C86.0142 119.387 86.8991 119.983 87.594 120.282C88.2768 120.576 88.6189 120.52 88.7681 120.466C88.9173 120.412 89.2149 120.234 89.5493 119.57C89.8895 118.895 90.184 117.869 90.3649 116.438C90.7259 113.581 90.5829 109.55 89.907 104.574ZM89.4521 122.346C95.6614 120.086 92.2674 95.099 81.8715 66.5366C71.4757 37.9741 58.0146 16.6517 51.8053 18.9117C45.5961 21.1717 48.9901 46.1582 59.3859 74.7207C69.7818 103.283 83.2429 124.605 89.4521 122.346Z" fill="white"/>
<path fill-rule="evenodd" clip-rule="evenodd" d="M36.6838 89.9068C46.6038 88.5594 59.8484 85.1562 74.0368 79.992C88.2252 74.8279 100.559 68.9214 109.024 63.5771C113.271 60.8961 116.45 58.4146 118.407 56.3018C119.387 55.2432 119.984 54.3582 120.282 53.6634C120.576 52.9805 120.521 52.6385 120.466 52.4893C120.412 52.34 120.235 52.0424 119.571 51.7081C118.895 51.3678 117.869 51.0733 116.438 50.8925C113.581 50.5315 109.55 50.6744 104.574 51.3504C94.6538 52.6979 81.4092 56.101 67.2208 61.2652C53.0324 66.4294 40.6989 72.3358 32.2336 77.6801C27.9868 80.3611 24.8072 82.8426 22.8508 84.9554C21.8705 86.014 21.2741 86.899 20.9753 87.5938C20.6816 88.2767 20.737 88.6188 20.7913 88.768C20.8456 88.9172 21.0231 89.2148 21.6869 89.5492C22.3625 89.8894 23.3882 90.1839 24.8196 90.3648C27.6764 90.7258 31.7072 90.5828 36.6838 89.9068ZM18.9119 89.452C21.1719 95.6613 46.1584 92.2673 74.7209 81.8714C103.283 71.4755 124.606 58.0144 122.346 51.8052C120.086 45.596 95.0992 48.9899 66.5368 59.3858C37.9743 69.7817 16.6519 83.2428 18.9119 89.452Z" fill="white"/>
<path fill-rule="evenodd" clip-rule="evenodd" d="M36.6838 89.9068C46.6038 88.5594 59.8484 85.1562 74.0368 79.992C88.2252 74.8279 100.559 68.9214 109.024 63.5771C113.271 60.8961 116.45 58.4146 118.407 56.3018C119.387 55.2432 119.984 54.3582 120.282 53.6634C120.576 52.9805 120.521 52.6385 120.466 52.4893C120.412 52.34 120.235 52.0424 119.571 51.7081C118.895 51.3678 117.869 51.0733 116.438 50.8925C113.581 50.5315 109.55 50.6744 104.574 51.3504C94.6538 52.6979 81.4092 56.101 67.2208 61.2652C53.0324 66.4294 40.6989 72.3358 32.2336 77.6801C27.9868 80.3611 24.8072 82.8426 22.8508 84.9554C21.8705 86.014 21.2741 86.899 20.9753 87.5938C20.6816 88.2767 20.737 88.6188 20.7913 88.768C20.8456 88.9172 21.0231 89.2148 21.6869 89.5492C22.3625 89.8894 23.3882 90.1839 24.8196 90.3648C27.6764 90.7258 31.7072 90.5828 36.6838 89.9068ZM18.9119 89.452C21.1719 95.6613 46.1584 92.2673 74.7209 81.8714C103.283 71.4755 124.606 58.0144 122.346 51.8052C120.086 45.596 95.0992 48.9899 66.5368 59.3858C37.9743 69.7817 16.6519 83.2428 18.9119 89.452Z" fill="white"/>
</svg>
